<svg xmlns="http://www.w3.org/2000/svg" width="126" height="126" viewBox="0 0 126 126"><defs><style>.a{fill:none;}.b{fill:#f71735;}</style></defs><g transform="translate(-0.301 -0.301)"><rect class="a" width="126" height="126" transform="translate(0.301 0.301)"/><g transform="translate(5.27 13.183)"><path class="b" d="M15.275,35.738h7.913v7.913a5.275,5.275,0,1,0,10.55,0V35.738h7.913a5.275,5.275,0,1,0,0-10.55H33.738V17.275a5.275,5.275,0,1,0-10.55,0v7.913H15.275a5.275,5.275,0,1,0,0,10.55Z" transform="translate(11.105 6.468)"/><path class="b" d="M93.79,21.092a7.385,7.385,0,0,0-6.066-2.9H81.13V12.916A7.649,7.649,0,0,0,73.217,5H9.916A7.649,7.649,0,0,0,2,12.916V84.13a7.649,7.649,0,0,0,7.913,7.913h6.066a18.463,18.463,0,0,0,35.343,0H68.733a18.463,18.463,0,0,0,35.343,0h6.066a7.649,7.649,0,0,0,7.913-7.913v-36.4ZM33.654,94.68a7.913,7.913,0,1,1,7.913-7.913,7.649,7.649,0,0,1-7.913,7.913ZM70.579,77.272a20.308,20.308,0,0,0-1.846,4.22H51.325a18.463,18.463,0,0,0-35.343,0H12.553V15.553H70.579ZM81.13,28.741h5.539L103.285,47.2H81.13ZM86.4,94.68a7.913,7.913,0,1,1,7.913-7.913A7.649,7.649,0,0,1,86.4,94.68Zm21.1-13.188h-3.429A18.463,18.463,0,0,0,86.4,68.3a16.881,16.881,0,0,0-5.275.791V57.754h26.376Z" transform="translate(-1.998 -4.998)"/></g></g></svg>