<svg xmlns="http://www.w3.org/2000/svg" width="128" height="128" viewBox="0 0 128 128"><defs><style>.a{fill:none;}.b{fill:#f71735;}</style></defs><g transform="translate(0.186 0.186)"><g transform="translate(-0.186 -0.186)"><rect class="a" width="128" height="128"/></g><g transform="translate(5.249 5.256)"><path class="b" d="M20.577,28.617A13.309,13.309,0,1,0,7,15.574,13.309,13.309,0,0,0,20.577,28.617Z" transform="translate(6.312 -2.001)"/><path class="b" d="M39.269,72.561a5.324,5.324,0,0,0-5.324,5.324V88.532H23.3V61.914H12.65V29.971a5.324,5.324,0,0,1,5.324-5.324H33.945a5.324,5.324,0,0,0,0-10.647H17.974A15.971,15.971,0,0,0,2,29.971v34.6a7.719,7.719,0,0,0,7.986,7.986H12.65V91.194a7.719,7.719,0,0,0,7.986,7.986H36.607a7.719,7.719,0,0,0,7.986-7.986V77.885A5.324,5.324,0,0,0,39.269,72.561Z" transform="translate(-1.998 17.94)"/><path class="b" d="M44.577,28.617A13.309,13.309,0,1,0,31,15.574,13.309,13.309,0,0,0,44.577,28.617Z" transform="translate(46.197 -2.001)"/><path class="b" d="M56.622,14H37.989a5.324,5.324,0,1,0,0,10.647H56.622a5.324,5.324,0,0,1,5.324,5.324V61.914H51.3V88.532H40.65V77.885a5.324,5.324,0,1,0-10.647,0V91.194a7.719,7.719,0,0,0,7.986,7.986H53.96a7.719,7.719,0,0,0,7.986-7.986V72.561h2.662a7.719,7.719,0,0,0,7.986-7.986v-34.6A15.971,15.971,0,0,0,56.622,14Z" transform="translate(44.534 17.94)"/><path class="b" d="M66.631,55.337,83.667,38.3,66.631,21.265a5.324,5.324,0,0,0-7.453,7.453l4.259,4.259H30.43l4.259-4.259a5.324,5.324,0,0,0-7.453-7.453L10.2,38.3,27.236,55.337a5.272,5.272,0,1,0,7.453-7.453L30.43,43.624H63.437l-4.259,4.259a5.272,5.272,0,1,0,7.453,7.453Z" transform="translate(11.632 28.243)"/></g></g></svg>