<svg xmlns="http://www.w3.org/2000/svg" width="146" height="146" viewBox="0 0 146 146"><defs><style>.a{fill:none;}.b{fill:#f71735;}</style></defs><rect class="a" width="146" height="146"/><g transform="translate(6.083 9.124)"><path class="b" d="M45.167,62.188v-44.1a6.083,6.083,0,0,0-12.167,0v44.1a6.083,6.083,0,0,0,12.167,0Z" transform="translate(61.292 15.376)"/><path class="b" d="M73.2,84.547a25.246,25.246,0,0,1-15.512,5.475H52.214c-13.688,0-26.463-10.342-27.375-22.2L21.189,22.5A6.114,6.114,0,1,0,9.022,23.714l3.65,45.017c1.521,18.25,19.771,33.458,39.542,33.458h5.475A37.108,37.108,0,0,0,81.11,93.672a6.083,6.083,0,0,0,.608-8.517,5.779,5.779,0,0,0-8.517-.608Z" transform="translate(12.27 25.562)"/><path class="b" d="M33.083,60.75a6.083,6.083,0,0,0,6.083-6.083V12.083a6.083,6.083,0,0,0-12.167,0V54.667A6.083,6.083,0,0,0,33.083,60.75Z" transform="translate(49.042 3.126)"/><path class="b" d="M27.083,66.875a6.083,6.083,0,0,0,6.083-6.083V9.083A6.083,6.083,0,0,0,21,9.083V60.792A6.083,6.083,0,0,0,27.083,66.875Z" transform="translate(36.792 -2.999)"/><path class="b" d="M21.083,60.75a6.083,6.083,0,0,0,6.083-6.083V12.083a6.083,6.083,0,1,0-12.167,0V54.667A6.083,6.083,0,0,0,21.083,60.75Z" transform="translate(24.542 3.126)"/><path class="b" d="M18.842,35.533a3.042,3.042,0,1,0,0,6.083l5.475.912,1.217,5.779a3.042,3.042,0,0,0,6.083,0l1.217-5.779,5.475-.912a3.042,3.042,0,1,0,0-6.083l-5.475-.912-1.217-5.779a3.042,3.042,0,1,0-6.083,0l-1.217,5.779Z" transform="translate(26.176 43.551)"/><path class="b" d="M68.475,45.117,58.133,42.988,55.7,32.342a3.042,3.042,0,0,0-6.083,0L47.183,42.988,36.842,45.117a3.042,3.042,0,0,0,0,6.083l10.342,2.129,2.433,10.646a3.042,3.042,0,1,0,6.083,0l2.433-10.646L68.475,51.2a3.042,3.042,0,1,0,0-6.083Z" transform="translate(62.926 50.696)"/><path class="b" d="M32.417,18.209a3.042,3.042,0,0,0-2.433-3.042l-7.908-1.521L20.25,5.434a3.118,3.118,0,0,0-6.083,0l-1.825,8.213L4.434,15.167a3.118,3.118,0,0,0,0,6.083l7.908,1.521,1.825,8.212a3.118,3.118,0,0,0,6.083,0l1.825-8.212,7.908-1.521a3.042,3.042,0,0,0,2.433-3.042Z" transform="translate(-2 -3)"/></g></svg>