<svg xmlns="http://www.w3.org/2000/svg" width="148" height="148" viewBox="0 0 148 148"><defs><style>.a{fill:none;}.b{fill:#f71735;}</style></defs><rect class="a" width="148" height="148"/><g transform="translate(6.175 9.143)"><path class="b" d="M135.811,63.2,74.144,4.614a6.475,6.475,0,0,0-8.633,0L3.844,63.2a6.783,6.783,0,0,0-.308,8.942,6.475,6.475,0,0,0,8.942,0l1.85-1.542v52.725a8.942,8.942,0,0,0,9.25,9.25h92.5a8.942,8.942,0,0,0,9.25-9.25V70.6l1.85,1.542a6.167,6.167,0,0,0,4.317,1.85A6.178,6.178,0,0,0,135.811,63.2Zm-22.817,57.042H26.661V58.881L69.828,17.872l43.167,41.008Z" transform="translate(-2.003 -2.965)"/><path class="b" d="M34.5,25.167V37.5H22.167a6.167,6.167,0,1,0,0,12.333H34.5V62.167a6.167,6.167,0,0,0,12.333,0V49.833H59.167a6.167,6.167,0,0,0,0-12.333H46.833V25.167a6.167,6.167,0,1,0-12.333,0Z" transform="translate(27.158 30.44)"/></g></svg>