<svg xmlns="http://www.w3.org/2000/svg" width="120" height="130" viewBox="0 0 120 130"><defs><style>.a{fill:none;}.b{fill:#f71735;}</style></defs><g transform="translate(0 -0.681)"><g transform="translate(0 0.296)"><rect class="a" width="120" height="130" transform="translate(0 0.385)"/></g><g transform="translate(2.331 1.603)"><path class="b" d="M117.035,69.282s-12.1-18.929-12.646-20.968C100.265,17.154,83.5,1.428,54.355,2.01,37.861,2.3,24.39,8.126,15.043,18.9S2.123,43.655,3.222,59.672A51.845,51.845,0,0,0,14.494,91.123c7.148,9.61,8.247,19.8,5.223,31.743a5.822,5.822,0,0,0,.49,4.381,5.256,5.256,0,0,0,3.358,2.609,4.967,4.967,0,0,0,4.135-.52,5.521,5.521,0,0,0,2.462-3.558c4.124-16.017,1.649-30-6.873-41.936a38.812,38.812,0,0,1-9.072-24.171L49.407,78.31v46.013a5.668,5.668,0,0,0,5.5,5.824H96.142a5.789,5.789,0,0,0,5.223-3.786l16.22-49.507a7.333,7.333,0,0,0-.55-7.572ZM14.494,46.858a40.087,40.087,0,0,1,8.8-20.094c7.148-8.445,17.869-12.814,31.34-13.1S89.269,17.154,93.668,49.77c.275,3.495,4.948,11.649,9.9,19.22H56.28ZM102.465,87.92H75.524a4.376,4.376,0,0,0,0,8.737H99.441l-1.924,5.824H75.524a4.376,4.376,0,0,0,0,8.737H94.492l-2.2,7.28H60.4V80.639h44.26Z" transform="translate(-3.03 -1.995)"/><path class="b" d="M28.438,16a1.538,1.538,0,1,0,1.538,1.538A1.538,1.538,0,0,0,28.438,16Z" transform="translate(43.7 27.787)"/></g></g></svg>